#!OML:ASF F:\twosubjects\two\Thursday\Session 1\Rory.ASF
:FULLY-SPECIFIED
:DEGREES
288
root 12.047 15.8182 5.94634 -11.8834 -67.2582 21.0911
lowerback 27.9167 2.81141 -7.9883
upperback 13.6975 0.501218 -2.80043
thorax -0.0551234 -0.456427 1.33909
lowerneck -9.26437 7.31023 2.94043
upperneck -13.5558 8.67276 -9.26242
head -2.2144 4.29649 -3.42463
rclavicle -3.15074e-014 8.29926e-014
rhumerus -87.0258 -22.4575 -14.5367
rradius 11.2918
rwrist 84.968
rhand -11.983 16.4992
rfingers 7.12502
rthumb 14.0734 -13.0043
lclavicle -3.15074e-014 8.29926e-014
lhumerus -77.46 -4.4795 84.6627
lradius 20.413
lwrist -45.7114
lhand 5.32856 25.562
lfingers 7.12502
lthumb 30.6833 53.0233
rfemur -28.8643 3.13532 -14.1164
rtibia 61.7606
rfoot -15.8901 -27.5084
rtoes -11.4906
lfemur -39.9215 -1.52445 -2.84502
ltibia 56.9176
lfoot -20.7451 -4.6683
ltoes -18.5618
289
root 12.0786 15.7233 5.85609 -12.2135 -67.2723 21.0752
lowerback 28.3819 2.84618 -7.91217
upperback 14.0827 0.489065 -2.74317
thorax 0.17519 -0.494389 1.35426
lowerneck -9.42694 7.39212 3.25039
upperneck -14.3677 8.65746 -9.68016
head -2.43229 4.27959 -3.6517
rclavicle -1.01678e-013 2.0773e-014
rhumerus -86.0262 -22.6755 -17.1953
rradius 11.3354
rwrist 83.5409
rhand -12.3445 16.1298
rfingers 7.12502
rthumb 13.725 -13.3976
lclavicle -1.01678e-013 2.0773e-014
lhumerus -76.9985 -4.58595 84.3115
lradius 20.4877
lwrist -45.452
lhand 6.23239 24.8503
lfingers 7.12502
lthumb 31.5447 52.1465
rfemur -28.6886 3.95758 -14.2706
rtibia 62.2515
rfoot -16.5402 -26.6458
rtoes -14.8834
lfemur -40.382 -1.00953 -2.50558
ltibia 57.8736
lfoot -20.8779 -5.02293
ltoes -19.9878
290
root 12.1087 15.6396 5.77728 -11.2641 -67.6418 19.7324
lowerback 28.7298 2.79253 -7.23726
upperback 14.4143 0.53046 -2.59541
thorax 0.385118 -0.47283 1.11907
lowerneck -9.53288 7.42569 3.62622
upperneck -15.0507 8.57916 -10.0872
head -2.62078 4.22657 -3.88941
rclavicle 8.24956e-015 -2.46493e-014
rhumerus -85.689 -23.1244 -18.0845
rradius 11.5891
rwrist 84.4716
rhand -13.5232 15.7957
rfingers 7.12502
rthumb 12.5889 -13.805
lclavicle 8.24956e-015 -2.46493e-014
lhumerus -76.6497 -4.78448 84.4469
lradius 20.6317
lwrist -44.3723
lhand 7.2984 24.1585
lfingers 7.12502
lthumb 32.5597 51.2506
rfemur -28.749 4.93203 -13.7074
rtibia 62.9544
rfoot -17.3812 -26.1642
rtoes -18.2889
lfemur -40.6109 -0.499409 -1.3876
ltibia 58.5484
lfoot -20.434 -6.14897
ltoes -18.9232
291
root 12.1373 15.5638 5.70136 -9.74276 -68.1268 17.8623
lowerback 29.0568 2.66911 -6.17876
upperback 14.6577 0.586985 -2.42239
thorax 0.501547 -0.413326 0.691566
lowerneck -9.6096 7.34281 3.63496
upperneck -15.4797 8.40567 -10.2624
head -2.76204 4.13954 -3.97527
rclavicle 9.64106e-015 -2.49475e-014
rhumerus -84.7779 -23.2403 -20.2505
rradius 11.8507
rwrist 84.128
rhand -14.5224 15.3898
rfingers 7.12502
rthumb 11.6253 -14.2677
lclavicle 9.64106e-015 -2.49475e-014
lhumerus -77.0828 -5.85799 87.6191
lradius 21.053
lwrist -43.4043
lhand 5.52226 27.9726
lfingers 7.12502
lthumb 30.868 55.3992
rfemur -29.0551 5.73092 -12.8453
rtibia 63.8597
rfoot -18.0643 -26.2011
rtoes -21.6886
lfemur -40.6479 -0.07992 -0.0174763
ltibia 58.8993
lfoot -20.5699 -7.07057
ltoes -17.9346
292
root 12.1624 15.4828 5.62639 -8.33405 -68.6653 16.1614
lowerback 29.2847 2.53522 -5.11616
upperback 14.8694 0.643512 -2.26592
thorax 0.633111 -0.348853 0.242884
lowerneck -9.40711 7.29724 3.1914
upperneck -16.0482 8.33369 -10.2067
head -3.02397 4.13338 -3.91688
rclavicle 1.36664e-014 -1.25731e-014
rhumerus -83.2374 -23.011 -23.4485
rradius 11.9749
rwrist 82.3818
rhand -14.9242 15.38
rfingers 7.12502
rthumb 11.2379 -14.299
lclavicle 1.36664e-014 -1.25731e-014
lhumerus -76.8718 -6.06818 88.1786
lradius 21.0688
lwrist -43.148
lhand 6.32499 28.7495
lfingers 7.12502
lthumb 31.6329 56.0284
rfemur -29.5014 6.28116 -12.0461
rtibia 64.8131
rfoot -19.2225 -26.0452
rtoes -24.3812
lfemur -40.4467 0.329099 1.20941
ltibia 58.9256
lfoot -21.8009 -6.63742
ltoes -23.0007
293
root 12.1964 15.3835 5.54428 -7.42728 -68.9616 15.1127
lowerback 29.5594 2.32707 -4.26756
upperback 14.9819 0.557955 -2.19155
thorax 0.641085 -0.353996 -0.135995
lowerneck -9.16945 7.33908 2.86876
upperneck -16.49 8.37466 -10.2587
head -3.23096 4.18242 -3.91136
rclavicle 5.10877e-014 3.08116e-015
rhumerus -82.5138 -23.0529 -24.7779
rradius 12.107
rwrist 82.2555
rhand -15.1955 14.861
rfingers 7.12502
rthumb 10.9762 -14.8321
lclavicle 5.10877e-014 3.08116e-015
lhumerus -76.5982 -6.08904 88.206
lradius 21.0146
lwrist -43.3426
lhand 6.60166 28.7023
lfingers 7.12502
lthumb 31.8964 55.9289
rfemur -30.1495 6.2144 -11.5121
rtibia 65.7921
rfoot -20.6083 -25.7343
rtoes -26.5464
lfemur -40.3828 0.434717 2.12186
ltibia 58.7737
lfoot -23.0268 -4.70614
ltoes -32.803
294
root 12.2383 15.3075 5.44264 -7.21171 -68.8561 15.1397
lowerback 29.8211 2.02994 -3.78738
upperback 14.8989 0.290682 -2.23221
thorax 0.434559 -0.450118 -0.379089
lowerneck -8.80999 7.30181 2.80241
upperneck -17.1358 8.22145 -10.7379
head -3.08042 4.16937 -3.71475
rclavicle -1.14798e-014 -1.93815e-014
rhumerus -81.9392 -23.0764 -25.8779
rradius 12.136
rwrist 81.8716
rhand -14.7747 14.0844
rfingers 7.12502
rthumb 11.3821 -15.5867
lclavicle -1.14798e-014 -1.93815e-014
lhumerus -76.3664 -5.8985 87.4324
lradius 20.9237
lwrist -43.8567
lhand 6.564 28.0908
lfingers 7.12502
lthumb 31.8606 55.3246
rfemur -30.988 5.54737 -11.3731
rtibia 66.5656
rfoot -21.9851 -25.7754
rtoes -26.6225
lfemur -40.62 -0.79117 3.40013
ltibia 58.5051
lfoot -22.0528 -9.33124
ltoes -14.988
